<?xml version="1.0" encoding="utf-8"?>
<!-- Generator: Adobe Illustrator 18.1.1, SVG Export Plug-In . SVG Version: 6.00 Build 0)  -->
<!DOCTYPE svg PUBLIC "-//W3C//DTD SVG 1.1//EN" "http://www.w3.org/Graphics/SVG/1.1/DTD/svg11.dtd">
<svg version="1.1" id="Capa_1" xmlns="http://www.w3.org/2000/svg" xmlns:xlink="http://www.w3.org/1999/xlink" x="0px" y="0px"
	 viewBox="0 0 1834.2 350.1" enable-background="new 0 0 1834.2 350.1" xml:space="preserve">
<g>
	<path fill="#53575C" d="M573.1,0.1c4.3,1.6,8.7,3.1,12.9,4.9c24.7,10.5,29.2,39.5,20.1,56.8c-3.6,6.9-7.8,13.6-11.9,20.2
		c-25,40.7-50,81.4-75,122c-1.5,2.5-2.3,5-2.3,7.9c-0.2,27.5-0.3,54.9-0.9,82.4c-0.4,19.3-8,35-26.5,42.8
		c-18.6,7.9-36.9,6.6-53.1-6.6c-11.3-9.2-15.2-22-15.2-36c0.1-27.5,0.4-54.9,0.9-82.4c0-3.2-0.7-5.8-2.3-8.4
		c-26.8-45-53.6-90-80.4-135.1c-10.3-17.4-9.8-36.3,1.3-51.1c6.8-8.9,16.4-13.2,26.8-16.4c0.9-0.3,2.1,0.2,2.5-1.1c7,0,14,0,21,0
		c14.1,1.3,23.2,9.9,29.9,21.4c7.6,13.1,14.4,26.7,21.6,40c9.5,17.7,19,35.5,29,53.9c4.6-7.4,8.3-14.5,12.2-21.6
		c13.4-24.2,26.7-48.4,40.2-72.5c1.7-3.1,3.8-5.8,6.1-8.5c6.1-7,13.4-11.8,22.9-12.7C559.8,0.1,566.4,0.1,573.1,0.1z"/>
	<path fill="#FED430" d="M1671.1,0.1c8.5,2.6,17.4,3.2,26,5.9c58.8,18.6,97.5,57.5,116.7,115.9c0.3,0.9,0.3,2,0.4,2.9
		c0.5,1.1-0.1,1.4-1,1.5c-1.6-0.9-2.1-2.5-2.8-4c-12.5-30.1-33.7-52-63.2-65.7c-13-6-26.7-9-40.9-10.4c-18.1-1.7-35.7,0.6-52.6,6.7
		c-28.2,10.2-50.5,28-65.6,54.2c-6.7,11.4-11.5,23.6-14.4,36.5c-6.4,28.5-2.8,55.8,9.7,82.1c0.9,1.9,2.3,3.7,2,6.1
		c-2.1,1.9-3.7,0.1-5.3-0.9c-30-19.9-48.7-47.3-55-82.8c-6-33.6,1.2-64.7,20.1-92.7c19.1-28.3,45.4-46.7,79.5-53
		c0.1,0,0.2-0.2,0.3-0.4c2-1,4.3,0.7,6.2-0.8c1.7-1.5,4.1,0.2,5.8-1.1C1648.4,0.1,1659.8,0.1,1671.1,0.1z"/>
	<path fill="#E5ED98" d="M1637.1,0.1c-1.7,1.8-3.9,0.7-5.8,1.1c-0.1-0.4-0.1-0.8-0.2-1.1C1633.1,0.1,1635.1,0.1,1637.1,0.1z"/>
	<path fill="#53575C" d="M709.3,58.7c8.2-10.8,16.7-19.8,26.3-27.9C763,7.5,795.2-0.3,830.4,1.7c12.9,0.7,25.4,3.3,37.5,7.9
		c36,13.5,55.9,40.3,63.2,77.3c2.2,11.5,3.1,23.1,3,34.8c-0.1,59-0.1,118,0,177c0,5.4-0.8,10.6-2.4,15.7c-4.4,13.4-13.1,22-27.2,25
		c-11.1,2.4-22.2,2.3-33.2-0.4c-15-3.8-24.9-15.3-27.2-31.6c-0.5-3.9-0.8-8-0.8-11.9c-0.1-52.7,0-105.3,0-158c0-8.6-1-16.9-3.7-25.1
		c-7.2-21.9-23-34.3-46-36.1c-39.5-3.1-72.5,24.9-75.7,64.5c-0.5,5.5-0.7,11-0.6,16.5c0,47,0,94,0,141c0,5.2-0.5,10.3-2.1,15.3
		c-4.2,13.9-13,22.8-27.5,25.9c-11.3,2.4-22.5,2.3-33.6-0.5c-15.2-3.9-25.2-16.2-26.9-32.9c-0.4-3.5-0.6-7-0.6-10.5
		c0-82.8,0-165.7,0-248.5c0-5.8,0.4-11.7,2-17.3C634.2,9.1,648,0.4,670,1.6c24.3,1.2,35.9,13.2,38.3,37.6
		C708.9,45.2,708.9,51.4,709.3,58.7z"/>
	<path fill="#53575C" d="M190.4,80.1c-44,0-87,0-130,0c-3.2,0-6.3-0.2-9.4-0.9c-18-3.8-28.4-17-27.8-35.4C23.9,24.9,35,12.5,53.5,10
		c3-0.4,6-0.7,9-0.7c69.8,0,139.6,0,209.5,0c4.5,0,9,0.3,13.4,1.2c22.4,4.7,34.4,31.1,24.2,53.1c-3.2,6.9-7.9,12.7-12.9,18.2
		c-52.9,57.7-105.7,115.4-158.6,173.1c-1.9,2.1-3.8,4.2-5.8,6.5c1.7,1.4,3.6,0.8,5.2,0.8c47.3,0,94.7,0,142,0c4,0,8,0.4,11.8,1.5
		c17.7,5,26.7,18.7,25.3,36.8c-1.6,22.3-17.3,30.7-33,32.4c-1.7,0.2-3.3,0.2-5,0.2c-75.7,0-151.3,0-227,0c-6.4,0-12.6-0.6-18.7-2.5
		c-15.3-4.8-25.1-18.4-24.6-34.3c0.4-12.6,4.5-23.6,13.2-33c34.3-37,68.5-74.1,102.7-111.1c21.2-23,42.5-46,63.7-69
		C188.6,82.4,189.2,81.6,190.4,80.1z"/>
	<path fill="#53575C" d="M957.9,187.1c0.2-43.2,5.7-75.7,21.8-105.8c23.2-43.3,60-67.5,107.7-76.1c36.2-6.5,72-4.9,106.7,8
		c21.5,8,40.2,20.1,54.1,38.7c8.3,11.1,13.2,23.5,12,37.6c-1.7,20.8-15.2,34-36.3,35.5c-15.5,1.1-28.5-2.9-37.1-17.2
		c-4.8-8-11.2-14.9-17.7-21.6c-7.5-7.8-17.4-10.7-27.7-12.6c-30.9-5.7-55.8,4.3-74.5,29.3c-9.3,12.4-12.9,27.2-15.3,42.3
		c-3.6,22.9-4.7,45.8,1.4,68.4c7.8,28.6,24.3,48.9,54.7,55.1c14,2.8,27.8,2.1,41.5-2.1c7.8-2.4,14.5-6.6,19.8-12.9
		c7.5-8.7,14.3-18,21.4-27c10.7-13.5,25.5-16.3,41.5-13.3c14.3,2.7,24,11.6,27.5,25.8c3.1,12.5-0.3,24.4-5.7,35.8
		c-12.9,27-35.4,43.2-62.2,54c-25.1,10.2-51.6,12.9-78.4,11.8c-22.9-1-45.4-4.6-66.8-13.2c-43-17.2-68.3-49.8-81.2-93.2
		C959.7,215.9,957.8,196.9,957.9,187.1z"/>
	<path fill="#53575C" d="M1365.3,78.4c2.3-2.3,2.2-4.4,2.8-6.2c6.2-20,14.9-38.5,29.8-53.6c16.7-16.9,46.7-22.1,68.2-12.2
		c25.8,11.8,34.4,46.4,16.7,68.8c-8.8,11.2-21.4,15.2-35.4,15.5c-9.5,0.2-19.1-0.9-28.4,0.8c-18.5,3.5-29.5,15.7-35.9,32.7
		c-5.1,13.4-7.2,27.4-7.9,41.5c-2.2,42.6-0.6,85.3-1,127.9c-0.1,5.8,0,11.7-1.5,17.4c-4.9,19.2-17,28.4-39.1,30
		c-6.4,0.4-12.7,0-18.9-1.3c-20.4-4.3-31.4-19-31.4-41.8c0-84.5,0-169,0-253.5c0-4.4,0.4-8.7,1.4-12.9c4.7-19.7,22-31.9,42.4-30.1
		c24.5,2.2,38.1,17.2,38.2,41.9C1365.3,54.7,1365.3,66,1365.3,78.4z"/>
	<path fill="#ED3989" d="M1587.2,106.2c9.8-17.8,24-31.4,40.8-42.2c20.7-13.3,43.6-19.6,68.1-19.7c50.9-0.1,96.3,30.5,115.6,77.6
		c0.6,1.4,1.2,2.8,1.7,4.1c1.6,1,0.9,2.9,1.7,4.2c3.8,13.3,5.9,26.8,5.7,40.6c-1.3,81.8-59.3,148.7-135.4,165
		c-1.3,0.3-2.6,0.3-4,0.4c-1.1,0.5-1.4-0.1-1.5-1c1-1.8,2.9-2,4.7-2.6c34.9-11.3,60.8-33.3,77.2-66c7.5-15,11.8-31,12.2-48
		c1.2-48.3-19.1-85-59.6-110.8c-12.2-7-25.1-12.1-39-14.8c-28.8-5.6-56.1-1.2-82.3,11.6C1591.2,105.5,1589.6,107.4,1587.2,106.2z"/>
	<path fill="#CADA2A" d="M1625.1,2c-5.4,3.3-11.8,3.8-17.6,6c-22.5,8.5-41.1,22-55.9,40.9c-15.9,20.2-24.5,43-26.5,68.6
		c-2.6,32.5,6.8,61.3,26.9,86.6c9.1,11.4,19.9,21.3,33.2,28.1c1.8-0.3,3.2,0.9,4.6,1.6c38.5,19.8,77.2,20.2,116.2,1.5
		c1.9-0.9,3.6-2.4,5.9-2.4c1.9,2.1,0.2,3.7-0.8,5.3c-10.8,16.4-24.7,29.6-41.5,39.7c-23.8,14.3-49.8,19.6-77.2,17.4
		c-24.7-2-46.9-11.1-66.4-26.5c-20.3-16-34.5-36.3-41.6-61.4c-0.3-2.5-1.5-4.8-1.3-7.4c-1.8-5.4-3.2-10.9-3-16.7
		c-1-3.3,0.3-6.8-0.8-10c1.6-70.5,33.5-122.5,95.7-155.7C1590.5,9.2,1607.4,3.9,1625.1,2z"/>
	<path fill="#16B8EC" d="M1485,207.1c10.9,33,31.5,57.7,62.3,73.9c56.4,29.7,131.3,8.8,164.1-45.8c0.3-0.6,0.5-1.2,0.8-1.8
		c0.1-3.2,2-5.6,3.4-8.2c7.7-15.2,12-31.2,13.3-48.2c1.9-23-2.9-44.5-13-65.1c-0.8-1.6-2.1-3.1-0.9-5.1
		c23.8,13.7,40.6,33.5,51.1,58.7c28.5,68.5-10.3,147.8-82.1,168.5c-1.3,0.4-2.5,0.8-3.8,1.2c-1.2,1-2.7,1.2-4.2,1.4
		c-1.9,0.9-3.9,0.9-6,0.9c-2.2,1-4.5,1.1-6.9,1c-2.1,0.2-4.2-0.5-6.2,0.4c-79.5,4.8-152.7-50.4-172.3-127.4
		c-0.3-1.1-0.4-2.3-0.6-3.4C1483.6,207.2,1484.1,207,1485,207.1z"/>
	<path fill="#4DC7DA" d="M1485,207.1c-0.3,0.4-0.7,0.7-1,1.1c-0.8-2.7-2.5-5.3-1-8.2C1483.7,202.4,1484.3,204.7,1485,207.1z"/>
	<path fill="#C4ECF9" d="M1479.2,173.2c0.9,3.3,0.9,6.7,0.8,10C1478.2,180,1479.5,176.6,1479.2,173.2z"/>
	<path fill="#E55299" d="M1670,337.4c2-0.4,4-0.8,6.1-1.2c0.4,0.2,0.5,0.4,0.4,0.6c-0.1,0.2-0.2,0.3-0.3,0.3c-1.9,1.3-4,0.9-6,0.9
		C1670.1,337.9,1670,337.7,1670,337.4z"/>
	<path fill="#EB6FA9" d="M1670,337.4c0.1,0.2,0.1,0.4,0.1,0.6c-2.2,1.1-4.6,1.1-7,0.9c-0.3-0.2-0.4-0.4-0.3-0.5
		c0.1-0.1,0.2-0.2,0.4-0.2C1665.5,338,1667.7,337.7,1670,337.4z"/>
	<path fill="#E33F8E" d="M1676.1,337.2c0-0.3,0-0.6,0-0.9c1.4-0.3,2.7-0.6,4.1-1c0.4,0.3,0.8,0.6,1.2,0.9
		C1679.8,337.3,1677.9,337.2,1676.1,337.2z"/>
	<path fill="#FED236" d="M1815,130.2c-0.6-1.4-1.1-2.8-1.7-4.2c0.3-0.4,0.6-0.8,0.9-1.1C1815.4,126.5,1815.5,128.3,1815,130.2z"/>
	<path fill="#8179BB" d="M1663.2,338.2c0,0.2-0.1,0.5-0.1,0.7c-2.1,0-4.1,0.1-6.2,0.1C1658.9,337.8,1661,338.1,1663.2,338.2z"/>
</g>
</svg>
